<svg xmlns="http://www.w3.org/2000/svg" width="240" height="410" viewBox="0 0 240 410"><defs><linearGradient id="j" x2="1" y2="1"><stop stop-color="#69775e"/><stop offset="1" stop-color="#3d5143"/></linearGradient></defs><path d="M52 410l7-159q8-42 48-58h37q34 17 43 60l8 157" fill="url(#j)" stroke="#354234" stroke-width="4"/><path d="M108 167l-7 38 23 29 25-32-9-40" fill="#c29970" stroke="#725238" stroke-width="3"/><path d="M85 94q3-59 41-54 42 2 39 63l-6 41q-7 34-37 43-34-14-35-47z" fill="#d7b18b" stroke="#725238" stroke-width="3"/><path d="M84 119q-10-9-11-39 6-45 45-51 40-2 51 35l-3 53-14-30q-25-1-41-15l-11 33-9 12" fill="#75563c" stroke="#493c2b" stroke-width="4"/><path d="M77 76q-16-6-17-21 1-29 68-31 69 5 65 33-13 21-116 19" fill="#464c37" stroke="#343b2c" stroke-width="4"/><path d="M102 118l12-1M138 117l12 1" stroke="#664b34" stroke-width="3"/><circle cx="108" cy="125" r="2.8" fill="#3c3c2b"/><circle cx="144" cy="124" r="2.8" fill="#3c3c2b"/><path d="M127 125l-7 25 11 2M111 161l26-1" stroke="#976d4a" stroke-width="2.5" fill="none"/><path d="M101 198l23 36 25-35-7 51h-36z" fill="#d9c7a0" stroke="#a79675" stroke-width="2"/><path d="M103 197l-17 51 26 17 12-31M150 199l18 49-27 17-17-31" fill="#899076" stroke="#354234" stroke-width="3"/><path d="M121 268v142M62 260l26 38M181 267l-29 31" stroke="#354234" stroke-width="3"/><path d="M63 292l28 54 40-11-3-24-22 7-14-38M181 284l-21 43-31-6-6 24 49 11 26-50" fill="#5a6b53" stroke="#354234" stroke-width="3"/><path d="M96 299l77-8 6 57-80 5z" fill="#e0c995" stroke="#ab9060" stroke-width="3"/><path d="M109 310l51-5M110 317l53-5M111 324l45-4M113 333l49-5" stroke="#9f8658" stroke-width="2"/><path d="M91 319l18-9 10 7-4 23-14 3M168 310l13 6-1 21-15 2-9-9" fill="#cea579" stroke="#725238" stroke-width="2"/></svg>
